<svg width="72" height="72" viewBox="0 0 72 72" fill="none" xmlns="http://www.w3.org/2000/svg">
<circle cx="36" cy="36" r="36" fill="#2C3255"/>
<path d="M29.5443 46.22C26.391 46.22 24.0663 45.494 22.5703 44.042C21.0743 42.59 20.3263 40.5733 20.3263 37.992C20.3263 35.4253 21.0743 33.4233 22.5703 31.986C24.081 30.534 26.4056 29.808 29.5443 29.808C32.683 29.808 35.0003 30.534 36.4963 31.986C37.9923 33.4233 38.7403 35.4253 38.7403 37.992C38.7403 40.5733 37.9923 42.59 36.4963 44.042C35.0003 45.494 32.683 46.22 29.5443 46.22ZM29.5663 42.37C30.9156 42.37 31.8983 41.9593 32.5143 41.138C33.1303 40.302 33.4383 39.2533 33.4383 37.992C33.4383 36.7453 33.1303 35.7113 32.5143 34.89C31.8983 34.054 30.9156 33.636 29.5663 33.636C28.173 33.636 27.161 34.054 26.5303 34.89C25.9143 35.7113 25.6063 36.7453 25.6063 37.992C25.6063 39.2387 25.9143 40.28 26.5303 41.116C27.161 41.952 28.173 42.37 29.5663 42.37ZM49.3441 41.93C50.6641 41.9007 51.6395 41.8713 52.2701 41.842V46H40.6321V41.842C42.2161 41.9007 43.4115 41.93 44.2181 41.93V34.34C43.6901 35.4987 42.6121 36.2467 40.9841 36.584C40.9401 34.8533 40.7788 33.2767 40.5001 31.854C41.6735 31.6927 42.4875 31.4947 42.9421 31.26C43.4115 31.0107 43.7708 30.7393 44.0201 30.446C44.2841 30.1527 44.4601 29.9547 44.5481 29.852V29.808H49.3441V41.93Z" fill="#FBFBF7"/>
</svg>
