<svg width="24" height="34" viewBox="0 0 24 34" fill="none" xmlns="http://www.w3.org/2000/svg">
<mask id="path-1-inside-1_212_1990" fill="white">
<path fill-rule="evenodd" clip-rule="evenodd" d="M17.3428 19.2336C20.0504 17.297 21.8085 14.1705 21.8085 10.6431C21.8085 4.76507 16.9265 0 10.9042 0C4.88199 0 0 4.76507 0 10.6431C0 16.5211 4.88199 21.2861 10.9042 21.2861C12.0578 21.2861 13.1695 21.1113 14.2131 20.7873L14.767 21.5082C14.8798 21.655 14.8798 21.8593 14.767 22.0062L14.2465 22.6835C14.1508 22.8081 14.1349 22.9766 14.2058 23.1169L19.0888 32.7777C19.1928 32.9835 19.4464 33.0626 19.6489 32.9524L23.7832 30.7028C23.9749 30.5985 24.0508 30.3621 23.9557 30.1657L19.2405 20.4302C19.1617 20.2675 18.9854 20.1759 18.8071 20.2049L18.2353 20.2979C18.0642 20.3258 17.8941 20.2426 17.811 20.0905L17.3428 19.2336Z"/>
</mask>
<path fill-rule="evenodd" clip-rule="evenodd" d="M17.3428 19.2336C20.0504 17.297 21.8085 14.1705 21.8085 10.6431C21.8085 4.76507 16.9265 0 10.9042 0C4.88199 0 0 4.76507 0 10.6431C0 16.5211 4.88199 21.2861 10.9042 21.2861C12.0578 21.2861 13.1695 21.1113 14.2131 20.7873L14.767 21.5082C14.8798 21.655 14.8798 21.8593 14.767 22.0062L14.2465 22.6835C14.1508 22.8081 14.1349 22.9766 14.2058 23.1169L19.0888 32.7777C19.1928 32.9835 19.4464 33.0626 19.6489 32.9524L23.7832 30.7028C23.9749 30.5985 24.0508 30.3621 23.9557 30.1657L19.2405 20.4302C19.1617 20.2675 18.9854 20.1759 18.8071 20.2049L18.2353 20.2979C18.0642 20.3258 17.8941 20.2426 17.811 20.0905L17.3428 19.2336Z" fill="#FFC0A7"/>
<path d="M17.3428 19.2336L17.0541 18.83L16.6965 19.0857L16.9073 19.4715L17.3428 19.2336ZM14.2131 20.7873L14.6066 20.485L14.396 20.2109L14.0659 20.3134L14.2131 20.7873ZM14.767 21.5082L14.3735 21.8105L14.3735 21.8105L14.767 21.5082ZM14.767 22.0062L14.3735 21.7038L14.3735 21.7038L14.767 22.0062ZM14.2465 22.6835L14.64 22.9859L14.64 22.9859L14.2465 22.6835ZM14.2058 23.1169L14.6487 22.893L14.6487 22.893L14.2058 23.1169ZM19.0888 32.7777L18.6459 33.0016L18.6459 33.0016L19.0888 32.7777ZM19.6489 32.9524L19.4117 32.5165L19.4117 32.5165L19.6489 32.9524ZM23.7832 30.7028L24.0204 31.1387L24.0204 31.1387L23.7832 30.7028ZM23.9557 30.1657L24.4023 29.9494L24.4023 29.9494L23.9557 30.1657ZM19.2405 20.4302L19.6871 20.2139L19.6871 20.2138L19.2405 20.4302ZM18.8071 20.2049L18.7274 19.7151L18.7274 19.7151L18.8071 20.2049ZM18.2353 20.2979L18.315 20.7877L18.315 20.7877L18.2353 20.2979ZM17.811 20.0905L17.3756 20.3284L17.3756 20.3284L17.811 20.0905ZM21.3122 10.6431C21.3122 14.0005 19.6396 16.9808 17.0541 18.83L17.6315 19.6372C20.4612 17.6133 22.3047 14.3404 22.3047 10.6431H21.3122ZM10.9042 0.496237C16.6638 0.496237 21.3122 5.0504 21.3122 10.6431H22.3047C22.3047 4.47973 17.1891 -0.496237 10.9042 -0.496237V0.496237ZM0.496237 10.6431C0.496237 5.0504 5.14465 0.496237 10.9042 0.496237V-0.496237C4.61934 -0.496237 -0.496237 4.47973 -0.496237 10.6431H0.496237ZM10.9042 20.7899C5.14465 20.7899 0.496237 16.2357 0.496237 10.6431H-0.496237C-0.496237 16.8064 4.61934 21.7824 10.9042 21.7824V20.7899ZM14.0659 20.3134C13.0695 20.6227 12.0074 20.7899 10.9042 20.7899V21.7824C12.1081 21.7824 13.2694 21.5999 14.3602 21.2612L14.0659 20.3134ZM15.1605 21.2058L14.6066 20.485L13.8196 21.0897L14.3735 21.8105L15.1605 21.2058ZM15.1605 22.3085C15.4103 21.9834 15.4103 21.5309 15.1605 21.2058L14.3735 21.8105C14.3493 21.7791 14.3493 21.7353 14.3735 21.7038L15.1605 22.3085ZM14.64 22.9859L15.1605 22.3085L14.3735 21.7038L13.853 22.3812L14.64 22.9859ZM14.6487 22.893C14.6639 22.9231 14.6605 22.9592 14.64 22.9859L13.853 22.3812C13.641 22.6571 13.606 23.0302 13.763 23.3407L14.6487 22.893ZM19.5317 32.5539L14.6487 22.893L13.763 23.3407L18.6459 33.0016L19.5317 32.5539ZM19.4117 32.5165C19.4551 32.4929 19.5094 32.5098 19.5317 32.5539L18.6459 33.0016C18.8762 33.4572 19.4376 33.6323 19.8861 33.3883L19.4117 32.5165ZM23.546 30.2669L19.4117 32.5165L19.8861 33.3883L24.0204 31.1387L23.546 30.2669ZM23.5091 30.382C23.4887 30.3399 23.505 30.2893 23.546 30.2669L24.0204 31.1387C24.4448 30.9078 24.6129 30.3842 24.4023 29.9494L23.5091 30.382ZM18.7939 20.6465L23.5091 30.382L24.4023 29.9494L19.6871 20.2139L18.7939 20.6465ZM18.8867 20.6947C18.8485 20.7009 18.8108 20.6813 18.7939 20.6465L19.6871 20.2138C19.5127 19.8537 19.1224 19.6509 18.7274 19.7151L18.8867 20.6947ZM18.315 20.7877L18.8867 20.6947L18.7274 19.7151L18.1556 19.8081L18.315 20.7877ZM17.3756 20.3284C17.5596 20.6653 17.9361 20.8494 18.315 20.7877L18.1556 19.8081C18.1923 19.8022 18.2287 19.82 18.2465 19.8526L17.3756 20.3284ZM16.9073 19.4715L17.3756 20.3284L18.2465 19.8526L17.7783 18.9957L16.9073 19.4715Z" fill="#EA571C" mask="url(#path-1-inside-1_212_1990)"/>
<path d="M19.4379 10.5488C19.4379 15.0877 15.6663 18.7775 11.0012 18.7775C6.33604 18.7775 2.56452 15.0877 2.56452 10.5488C2.56452 6.00987 6.33604 2.32014 11.0012 2.32014C15.6663 2.32014 19.4379 6.00987 19.4379 10.5488Z" fill="#FBFBF7" stroke="#EA571C" stroke-width="0.496237"/>
<path d="M8.0137 4.54107C10.6505 3.38243 14.89 3.67723 17.1975 7.69226" stroke="#EA571C" stroke-width="0.496237" stroke-linecap="round"/>
</svg>
